{"title":"Super 8 2011 DVDSCR XVID - SCR0N","uid":6600123,"size":726584212,"categoryP":"video","categoryS":"movies","magnet":"?xt=urn:btih:a39c4c10f4035a025b449da500d34806020e0371&amp;dn=Super+8+2011+DVDSCR+XVID+-+SCR0N&amp;tr=udp%3A%2F%2Ftracker.openbittorrent.com%3A80&amp;tr=udp%3A%2F%2Fopen.demonii.com%3A1337&amp;tr=udp%3A%2F%2Ftracker.coppersurfer.tk%3A6969&amp;tr=udp%3A%2F%2Fexodus.desync.com%3A6969","seeders":0,"leechers":1,"uploader":"Torrent-SeedTM87","files":1,"time":1313173062,"description":"General\nComplete name                    : Super 8 2011 DVDSCR XVID - SCR0N.avi\nFormat                           : AVI\nFormat/Info                      : Audio Video Interleave\nFile size                        : 693 MiB\nDuration                         : 1h 51mn\nOverall bit rate                 : 866 Kbps\n\nVideo\nID                               : 0\nFormat                           : MPEG-4 Visual\nFormat profile                   : Advanced Simple@L5\nFormat settings, BVOP            : 2\nFormat settings, QPel            : No\nFormat settings, GMC             : No warppoints\nFormat settings, Matrix          : Default (H.263)\nCodec ID                         : XVID\nCodec ID/Hint                    : XviD\nDuration                         : 1h 51mn\nBit rate                         : 730 Kbps\nWidth                            : 720 pixels\nHeight                           : 304 pixels\nDisplay aspect ratio             : 2.35:1\nFrame rate                       : 29.970 fps\nColor space                      : YUV\nChroma subsampling               : 4:2:0\nBit depth                        : 8 bits\nScan type                        : Progressive\nCompression mode                 : Lossy\nBits/(Pixel*Frame)               : 0.111\nStream size                      : 585 MiB (84%)\n\n\nAudio\nID                               : 1\nFormat                           : MPEG Audio\nFormat version                   : Version 1\nFormat profile                   : Layer 3\nMode                             : Joint stereo\nMode extension                   : MS Stereo\nCodec ID                         : 55\nCodec ID/Hint                    : MP3\nDuration                         : 1h 51mn\nBit rate mode                    : Constant\nBit rate                         : 128 Kbps\nChannel(s)                       : 2 channels\nSampling rate                    : 48.0 KHz\nCompression mode                 : Lossy\nStream size                      : 102 MiB (15%)\nAlignment                        : Aligned on interleaves\nInterleave, duration             : 133 ms (4.00 video frames)\nInterleave, preload duration     : 216 ms\n\n\n &lt;a href=&quot;\nhttp://twitshort.tk/e&quot; rel=&quot;nofollow&quot; target=&quot;_NEW&quot;&gt;\nhttp://twitshort.tk/e&lt;/a&gt;\n   &lt;a href=&quot;\nhttp://twitshort.tk/f&quot; rel=&quot;nofollow&quot; target=&quot;_NEW&quot;&gt;\nhttp://twitshort.tk/f&lt;/a&gt;\n  &lt;a href=&quot;\nhttp://twitshort.tk/d&quot; rel=&quot;nofollow&quot; target=&quot;_NEW&quot;&gt;\nhttp://twitshort.tk/d&lt;/a&gt;\t","torrent":{"xt":"urn:btih:a39c4c10f4035a025b449da500d34806020e0371","amp;dn":"Super+8+2011+DVDSCR+XVID+-+SCR0N","amp;tr":["udp%3A%2F%2Ftracker.openbittorrent.com%3A80","udp%3A%2F%2Fopen.demonii.com%3A1337","udp%3A%2F%2Ftracker.coppersurfer.tk%3A6969","udp%3A%2F%2Fexodus.desync.com%3A6969"],"infoHash":"a39c4c10f4035a025b449da500d34806020e0371","infoHashBuffer":{"type":"Buffer","data":[163,156,76,16,244,3,90,2,91,68,157,165,0,211,72,6,2,14,3,113]},"announce":[],"urlList":[]}}